<mxfile host="app.diagrams.net" modified="2022-05-14T14:59:03.500Z" agent="5.0 (Windows NT 10.0; Win64; x64) AppleWebKit/537.36 (KHTML, like Gecko) Chrome/101.0.4951.54 Safari/537.36 Edg/101.0.1210.39" etag="r2kCnx9z7x78DI-ecLbK" version="18.0.4" type="github" pages="3">
  <diagram id="ZPPGXtNTY9vPL6BY7Txp" name="Page-1">
    <mxGraphModel dx="1422" dy="762" grid="1" gridSize="10" guides="1" tooltips="1" connect="1" arrows="1" fold="1" page="1" pageScale="1" pageWidth="850" pageHeight="1100" math="0" shadow="0">
      <root>
        <mxCell id="0" />
        <mxCell id="1" parent="0" />
        <mxCell id="WDkEbyBTM4j40mM0LiLb-1" value="AWS Cloud" style="sketch=0;outlineConnect=0;gradientColor=none;html=1;whiteSpace=wrap;fontSize=12;fontStyle=0;shape=mxgraph.aws4.group;grIcon=mxgraph.aws4.group_aws_cloud;strokeColor=#AAB7B8;fillColor=none;verticalAlign=top;align=left;spacingLeft=30;fontColor=#AAB7B8;dashed=0;" parent="1" vertex="1">
          <mxGeometry x="30" y="100" width="810" height="620" as="geometry" />
        </mxCell>
        <mxCell id="WDkEbyBTM4j40mM0LiLb-3" value="us-east-1" style="sketch=0;outlineConnect=0;gradientColor=none;html=1;whiteSpace=wrap;fontSize=12;fontStyle=0;shape=mxgraph.aws4.group;grIcon=mxgraph.aws4.group_region;strokeColor=#879196;fillColor=none;verticalAlign=top;align=left;spacingLeft=30;fontColor=#879196;dashed=1;" parent="1" vertex="1">
          <mxGeometry x="40" y="130" width="780" height="570" as="geometry" />
        </mxCell>
        <mxCell id="WDkEbyBTM4j40mM0LiLb-4" value="VPC" style="sketch=0;outlineConnect=0;gradientColor=none;html=1;whiteSpace=wrap;fontSize=12;fontStyle=0;shape=mxgraph.aws4.group;grIcon=mxgraph.aws4.group_vpc;strokeColor=#879196;fillColor=none;verticalAlign=top;align=left;spacingLeft=30;fontColor=#879196;dashed=0;" parent="1" vertex="1">
          <mxGeometry x="50" y="160" width="760" height="530" as="geometry" />
        </mxCell>
        <mxCell id="WDkEbyBTM4j40mM0LiLb-5" value="Availability zone" style="sketch=0;outlineConnect=0;gradientColor=none;html=1;whiteSpace=wrap;fontSize=12;fontStyle=0;shape=mxgraph.aws4.group;grIcon=mxgraph.aws4.group_availability_zone;strokeColor=#545B64;fillColor=none;verticalAlign=top;align=left;spacingLeft=30;fontColor=#545B64;dashed=1;" parent="1" vertex="1">
          <mxGeometry x="60" y="190" width="360" height="450" as="geometry" />
        </mxCell>
        <mxCell id="WDkEbyBTM4j40mM0LiLb-6" value="Availability zone" style="sketch=0;outlineConnect=0;gradientColor=none;html=1;whiteSpace=wrap;fontSize=12;fontStyle=0;shape=mxgraph.aws4.group;grIcon=mxgraph.aws4.group_availability_zone;strokeColor=#545B64;fillColor=none;verticalAlign=top;align=left;spacingLeft=30;fontColor=#545B64;dashed=1;" parent="1" vertex="1">
          <mxGeometry x="440" y="190" width="360" height="450" as="geometry" />
        </mxCell>
        <mxCell id="WDkEbyBTM4j40mM0LiLb-7" value="Public subnet" style="sketch=0;outlineConnect=0;gradientColor=none;html=1;whiteSpace=wrap;fontSize=12;fontStyle=0;shape=mxgraph.aws4.group;grIcon=mxgraph.aws4.group_subnet;strokeColor=#879196;fillColor=none;verticalAlign=top;align=left;spacingLeft=30;fontColor=#879196;dashed=0;" parent="1" vertex="1">
          <mxGeometry x="65" y="230" width="170" height="400" as="geometry" />
        </mxCell>
        <mxCell id="WDkEbyBTM4j40mM0LiLb-10" value="Public subnet" style="sketch=0;outlineConnect=0;gradientColor=none;html=1;whiteSpace=wrap;fontSize=12;fontStyle=0;shape=mxgraph.aws4.group;grIcon=mxgraph.aws4.group_subnet;strokeColor=#879196;fillColor=none;verticalAlign=top;align=left;spacingLeft=30;fontColor=#879196;dashed=0;" parent="1" vertex="1">
          <mxGeometry x="245" y="230" width="170" height="400" as="geometry" />
        </mxCell>
        <mxCell id="WDkEbyBTM4j40mM0LiLb-11" value="Public subnet" style="sketch=0;outlineConnect=0;gradientColor=none;html=1;whiteSpace=wrap;fontSize=12;fontStyle=0;shape=mxgraph.aws4.group;grIcon=mxgraph.aws4.group_subnet;strokeColor=#879196;fillColor=none;verticalAlign=top;align=left;spacingLeft=30;fontColor=#879196;dashed=0;" parent="1" vertex="1">
          <mxGeometry x="445" y="230" width="170" height="400" as="geometry" />
        </mxCell>
        <mxCell id="WDkEbyBTM4j40mM0LiLb-12" value="Public subnet" style="sketch=0;outlineConnect=0;gradientColor=none;html=1;whiteSpace=wrap;fontSize=12;fontStyle=0;shape=mxgraph.aws4.group;grIcon=mxgraph.aws4.group_subnet;strokeColor=#879196;fillColor=none;verticalAlign=top;align=left;spacingLeft=30;fontColor=#879196;dashed=0;" parent="1" vertex="1">
          <mxGeometry x="625" y="230" width="170" height="400" as="geometry" />
        </mxCell>
        <mxCell id="WDkEbyBTM4j40mM0LiLb-13" value="Internet&#xa;gateway" style="sketch=0;outlineConnect=0;fontColor=#232F3E;gradientColor=none;strokeColor=#232F3E;fillColor=#ffffff;dashed=0;verticalLabelPosition=top;verticalAlign=bottom;align=center;html=1;fontSize=12;fontStyle=0;aspect=fixed;shape=mxgraph.aws4.resourceIcon;resIcon=mxgraph.aws4.internet_gateway;labelPosition=center;" parent="1" vertex="1">
          <mxGeometry x="415" y="140" width="40" height="40" as="geometry" />
        </mxCell>
        <mxCell id="WDkEbyBTM4j40mM0LiLb-14" value="NAT gateway" style="sketch=0;outlineConnect=0;fontColor=#232F3E;gradientColor=none;strokeColor=#232F3E;fillColor=#ffffff;dashed=0;verticalLabelPosition=top;verticalAlign=bottom;align=center;html=1;fontSize=12;fontStyle=0;aspect=fixed;shape=mxgraph.aws4.resourceIcon;resIcon=mxgraph.aws4.nat_gateway;labelPosition=center;" parent="1" vertex="1">
          <mxGeometry x="180" y="210" width="40" height="40" as="geometry" />
        </mxCell>
        <mxCell id="WDkEbyBTM4j40mM0LiLb-15" value="NAT gateway" style="sketch=0;outlineConnect=0;fontColor=#232F3E;gradientColor=none;strokeColor=#232F3E;fillColor=#ffffff;dashed=0;verticalLabelPosition=top;verticalAlign=bottom;align=center;html=1;fontSize=12;fontStyle=0;aspect=fixed;shape=mxgraph.aws4.resourceIcon;resIcon=mxgraph.aws4.nat_gateway;labelPosition=center;" parent="1" vertex="1">
          <mxGeometry x="560" y="210" width="40" height="40" as="geometry" />
        </mxCell>
      </root>
    </mxGraphModel>
  </diagram>
  <diagram id="0iamKk-Ze_kNdscXz0xV" name="Page-2">
    <mxGraphModel dx="1673" dy="1996" grid="1" gridSize="10" guides="1" tooltips="1" connect="1" arrows="1" fold="1" page="1" pageScale="1" pageWidth="850" pageHeight="1100" math="0" shadow="0">
      <root>
        <mxCell id="0" />
        <mxCell id="1" parent="0" />
        <mxCell id="AHqEJTL18uZmj3GmUr9C-22" value="" style="sketch=0;outlineConnect=0;fontColor=#232F3E;gradientColor=none;fillColor=#4D27AA;strokeColor=none;dashed=0;verticalLabelPosition=bottom;verticalAlign=top;align=center;html=1;fontSize=12;fontStyle=0;aspect=fixed;pointerEvents=1;shape=mxgraph.aws4.internet_gateway;" vertex="1" parent="1">
          <mxGeometry x="400" y="-90" width="50" height="50" as="geometry" />
        </mxCell>
        <mxCell id="AHqEJTL18uZmj3GmUr9C-7" value="&lt;b&gt;Private subnet A&lt;/b&gt;" style="points=[[0,0],[0.25,0],[0.5,0],[0.75,0],[1,0],[1,0.25],[1,0.5],[1,0.75],[1,1],[0.75,1],[0.5,1],[0.25,1],[0,1],[0,0.75],[0,0.5],[0,0.25]];outlineConnect=0;gradientColor=none;html=1;whiteSpace=wrap;fontSize=12;fontStyle=0;container=1;pointerEvents=0;collapsible=0;recursiveResize=0;shape=mxgraph.aws4.group;grIcon=mxgraph.aws4.group_security_group;grStroke=0;strokeColor=#147EBA;fillColor=#E6F2F8;verticalAlign=top;align=left;spacingLeft=30;fontColor=#147EBA;dashed=0;" vertex="1" parent="1">
          <mxGeometry x="40" y="500" width="360" height="260" as="geometry" />
        </mxCell>
        <mxCell id="AHqEJTL18uZmj3GmUr9C-28" value="Consul &lt;br&gt;server" style="sketch=0;points=[[0,0,0],[0.25,0,0],[0.5,0,0],[0.75,0,0],[1,0,0],[0,1,0],[0.25,1,0],[0.5,1,0],[0.75,1,0],[1,1,0],[0,0.25,0],[0,0.5,0],[0,0.75,0],[1,0.25,0],[1,0.5,0],[1,0.75,0]];outlineConnect=0;fontColor=#232F3E;gradientColor=#F78E04;gradientDirection=north;fillColor=#D05C17;strokeColor=#ffffff;dashed=0;verticalLabelPosition=top;verticalAlign=bottom;align=center;html=1;fontSize=12;fontStyle=0;aspect=fixed;shape=mxgraph.aws4.resourceIcon;resIcon=mxgraph.aws4.ec2;labelPosition=center;" vertex="1" parent="AHqEJTL18uZmj3GmUr9C-7">
          <mxGeometry x="100" y="64" width="50" height="50" as="geometry" />
        </mxCell>
        <mxCell id="AHqEJTL18uZmj3GmUr9C-29" value="Consul &lt;br&gt;server" style="sketch=0;points=[[0,0,0],[0.25,0,0],[0.5,0,0],[0.75,0,0],[1,0,0],[0,1,0],[0.25,1,0],[0.5,1,0],[0.75,1,0],[1,1,0],[0,0.25,0],[0,0.5,0],[0,0.75,0],[1,0.25,0],[1,0.5,0],[1,0.75,0]];outlineConnect=0;fontColor=#232F3E;gradientColor=#F78E04;gradientDirection=north;fillColor=#D05C17;strokeColor=#ffffff;dashed=0;verticalLabelPosition=top;verticalAlign=bottom;align=center;html=1;fontSize=12;fontStyle=0;aspect=fixed;shape=mxgraph.aws4.resourceIcon;resIcon=mxgraph.aws4.ec2;labelPosition=center;" vertex="1" parent="AHqEJTL18uZmj3GmUr9C-7">
          <mxGeometry x="220" y="64" width="50" height="50" as="geometry" />
        </mxCell>
        <mxCell id="AHqEJTL18uZmj3GmUr9C-32" value="" style="endArrow=classic;startArrow=classic;html=1;rounded=0;entryX=0;entryY=0.5;entryDx=0;entryDy=0;entryPerimeter=0;" edge="1" parent="AHqEJTL18uZmj3GmUr9C-7" target="AHqEJTL18uZmj3GmUr9C-29">
          <mxGeometry width="50" height="50" relative="1" as="geometry">
            <mxPoint x="150" y="88.40999999999997" as="sourcePoint" />
            <mxPoint x="210" y="84" as="targetPoint" />
          </mxGeometry>
        </mxCell>
        <mxCell id="AHqEJTL18uZmj3GmUr9C-35" value="" style="endArrow=classic;startArrow=classic;html=1;rounded=0;entryX=0;entryY=0.5;entryDx=0;entryDy=0;entryPerimeter=0;" edge="1" parent="AHqEJTL18uZmj3GmUr9C-7" target="AHqEJTL18uZmj3GmUr9C-30">
          <mxGeometry width="50" height="50" relative="1" as="geometry">
            <mxPoint x="270" y="88.4099999999994" as="sourcePoint" />
            <mxPoint x="340" y="89" as="targetPoint" />
          </mxGeometry>
        </mxCell>
        <mxCell id="AHqEJTL18uZmj3GmUr9C-39" value="" style="edgeStyle=orthogonalEdgeStyle;rounded=0;orthogonalLoop=1;jettySize=auto;html=1;" edge="1" parent="AHqEJTL18uZmj3GmUr9C-7" source="AHqEJTL18uZmj3GmUr9C-36" target="AHqEJTL18uZmj3GmUr9C-37">
          <mxGeometry relative="1" as="geometry" />
        </mxCell>
        <mxCell id="AHqEJTL18uZmj3GmUr9C-36" value="Jenkins&lt;br&gt;Master" style="sketch=0;points=[[0,0,0],[0.25,0,0],[0.5,0,0],[0.75,0,0],[1,0,0],[0,1,0],[0.25,1,0],[0.5,1,0],[0.75,1,0],[1,1,0],[0,0.25,0],[0,0.5,0],[0,0.75,0],[1,0.25,0],[1,0.5,0],[1,0.75,0]];outlineConnect=0;fontColor=#232F3E;gradientColor=#F78E04;gradientDirection=north;fillColor=#D05C17;strokeColor=#ffffff;dashed=0;verticalLabelPosition=bottom;verticalAlign=top;align=center;html=1;fontSize=12;fontStyle=0;aspect=fixed;shape=mxgraph.aws4.resourceIcon;resIcon=mxgraph.aws4.ec2;" vertex="1" parent="AHqEJTL18uZmj3GmUr9C-7">
          <mxGeometry x="220" y="170" width="50" height="50" as="geometry" />
        </mxCell>
        <mxCell id="AHqEJTL18uZmj3GmUr9C-37" value="Jenkins&lt;br&gt;Node" style="sketch=0;points=[[0,0,0],[0.25,0,0],[0.5,0,0],[0.75,0,0],[1,0,0],[0,1,0],[0.25,1,0],[0.5,1,0],[0.75,1,0],[1,1,0],[0,0.25,0],[0,0.5,0],[0,0.75,0],[1,0.25,0],[1,0.5,0],[1,0.75,0]];outlineConnect=0;fontColor=#232F3E;gradientColor=#F78E04;gradientDirection=north;fillColor=#D05C17;strokeColor=#ffffff;dashed=0;verticalLabelPosition=bottom;verticalAlign=top;align=center;html=1;fontSize=12;fontStyle=0;aspect=fixed;shape=mxgraph.aws4.resourceIcon;resIcon=mxgraph.aws4.ec2;" vertex="1" parent="AHqEJTL18uZmj3GmUr9C-7">
          <mxGeometry x="100" y="170" width="50" height="50" as="geometry" />
        </mxCell>
        <mxCell id="AHqEJTL18uZmj3GmUr9C-43" value="" style="endArrow=none;html=1;rounded=0;" edge="1" parent="AHqEJTL18uZmj3GmUr9C-7">
          <mxGeometry width="50" height="50" relative="1" as="geometry">
            <mxPoint x="500" y="132" as="sourcePoint" />
            <mxPoint x="80" y="132" as="targetPoint" />
          </mxGeometry>
        </mxCell>
        <mxCell id="AHqEJTL18uZmj3GmUr9C-48" value="" style="endArrow=none;html=1;rounded=0;" edge="1" parent="AHqEJTL18uZmj3GmUr9C-7">
          <mxGeometry width="50" height="50" relative="1" as="geometry">
            <mxPoint x="124" y="130" as="sourcePoint" />
            <mxPoint x="124.41000000000003" y="114" as="targetPoint" />
          </mxGeometry>
        </mxCell>
        <mxCell id="AHqEJTL18uZmj3GmUr9C-47" value="" style="endArrow=none;html=1;rounded=0;" edge="1" parent="AHqEJTL18uZmj3GmUr9C-7">
          <mxGeometry width="50" height="50" relative="1" as="geometry">
            <mxPoint x="130" y="170" as="sourcePoint" />
            <mxPoint x="130" y="130" as="targetPoint" />
          </mxGeometry>
        </mxCell>
        <mxCell id="AHqEJTL18uZmj3GmUr9C-6" value="&lt;b&gt;Public subnet A&lt;/b&gt;" style="points=[[0,0],[0.25,0],[0.5,0],[0.75,0],[1,0],[1,0.25],[1,0.5],[1,0.75],[1,1],[0.75,1],[0.5,1],[0.25,1],[0,1],[0,0.75],[0,0.5],[0,0.25]];outlineConnect=0;gradientColor=none;html=1;whiteSpace=wrap;fontSize=12;fontStyle=0;container=1;pointerEvents=0;collapsible=0;recursiveResize=0;shape=mxgraph.aws4.group;grIcon=mxgraph.aws4.group_security_group;grStroke=0;strokeColor=#248814;fillColor=#E9F3E6;verticalAlign=top;align=left;spacingLeft=30;fontColor=#248814;dashed=0;" vertex="1" parent="1">
          <mxGeometry x="40" y="217" width="360" height="97" as="geometry" />
        </mxCell>
        <mxCell id="AHqEJTL18uZmj3GmUr9C-8" value="&lt;b&gt;Public subnet B&lt;/b&gt;" style="points=[[0,0],[0.25,0],[0.5,0],[0.75,0],[1,0],[1,0.25],[1,0.5],[1,0.75],[1,1],[0.75,1],[0.5,1],[0.25,1],[0,1],[0,0.75],[0,0.5],[0,0.25]];outlineConnect=0;gradientColor=none;html=1;whiteSpace=wrap;fontSize=12;fontStyle=0;container=1;pointerEvents=0;collapsible=0;recursiveResize=0;shape=mxgraph.aws4.group;grIcon=mxgraph.aws4.group_security_group;grStroke=0;strokeColor=#248814;fillColor=#E9F3E6;verticalAlign=top;align=right;spacingLeft=30;fontColor=#248814;dashed=0;" vertex="1" parent="1">
          <mxGeometry x="420" y="217" width="360" height="97" as="geometry" />
        </mxCell>
        <mxCell id="AHqEJTL18uZmj3GmUr9C-23" value="Bastion&lt;br&gt;Server" style="sketch=0;points=[[0,0,0],[0.25,0,0],[0.5,0,0],[0.75,0,0],[1,0,0],[0,1,0],[0.25,1,0],[0.5,1,0],[0.75,1,0],[1,1,0],[0,0.25,0],[0,0.5,0],[0,0.75,0],[1,0.25,0],[1,0.5,0],[1,0.75,0]];outlineConnect=0;fontColor=#232F3E;gradientColor=#F78E04;gradientDirection=north;fillColor=#D05C17;strokeColor=#ffffff;dashed=0;verticalLabelPosition=bottom;verticalAlign=top;align=center;html=1;fontSize=12;fontStyle=0;aspect=fixed;shape=mxgraph.aws4.resourceIcon;resIcon=mxgraph.aws4.ec2;" vertex="1" parent="1">
          <mxGeometry x="290" y="950" width="60" height="60" as="geometry" />
        </mxCell>
        <mxCell id="AHqEJTL18uZmj3GmUr9C-11" value="Jenkins &lt;br&gt;Node" style="sketch=0;points=[[0,0,0],[0.25,0,0],[0.5,0,0],[0.75,0,0],[1,0,0],[0,1,0],[0.25,1,0],[0.5,1,0],[0.75,1,0],[1,1,0],[0,0.25,0],[0,0.5,0],[0,0.75,0],[1,0.25,0],[1,0.5,0],[1,0.75,0]];outlineConnect=0;fontColor=#232F3E;gradientColor=#F78E04;gradientDirection=north;fillColor=#D05C17;strokeColor=#ffffff;dashed=0;verticalLabelPosition=bottom;verticalAlign=top;align=center;html=1;fontSize=12;fontStyle=0;aspect=fixed;shape=mxgraph.aws4.resourceIcon;resIcon=mxgraph.aws4.ec2;" vertex="1" parent="1">
          <mxGeometry x="130" y="820" width="40" height="40" as="geometry" />
        </mxCell>
        <mxCell id="AHqEJTL18uZmj3GmUr9C-10" value="Jenkins &lt;br&gt;Master" style="sketch=0;points=[[0,0,0],[0.25,0,0],[0.5,0,0],[0.75,0,0],[1,0,0],[0,1,0],[0.25,1,0],[0.5,1,0],[0.75,1,0],[1,1,0],[0,0.25,0],[0,0.5,0],[0,0.75,0],[1,0.25,0],[1,0.5,0],[1,0.75,0]];outlineConnect=0;fontColor=#232F3E;gradientColor=#F78E04;gradientDirection=north;fillColor=#D05C17;strokeColor=#ffffff;dashed=0;verticalLabelPosition=bottom;verticalAlign=top;align=center;html=1;fontSize=12;fontStyle=0;aspect=fixed;shape=mxgraph.aws4.resourceIcon;resIcon=mxgraph.aws4.ec2;" vertex="1" parent="1">
          <mxGeometry x="110" y="930" width="40" height="40" as="geometry" />
        </mxCell>
        <mxCell id="AHqEJTL18uZmj3GmUr9C-14" value="Jenkins &lt;br&gt;Node" style="sketch=0;points=[[0,0,0],[0.25,0,0],[0.5,0,0],[0.75,0,0],[1,0,0],[0,1,0],[0.25,1,0],[0.5,1,0],[0.75,1,0],[1,1,0],[0,0.25,0],[0,0.5,0],[0,0.75,0],[1,0.25,0],[1,0.5,0],[1,0.75,0]];outlineConnect=0;fontColor=#232F3E;gradientColor=#F78E04;gradientDirection=north;fillColor=#D05C17;strokeColor=#ffffff;dashed=0;verticalLabelPosition=bottom;verticalAlign=top;align=center;html=1;fontSize=12;fontStyle=0;aspect=fixed;shape=mxgraph.aws4.resourceIcon;resIcon=mxgraph.aws4.ec2;" vertex="1" parent="1">
          <mxGeometry x="40" y="910" width="40" height="40" as="geometry" />
        </mxCell>
        <mxCell id="AHqEJTL18uZmj3GmUr9C-18" value="Consul &lt;br&gt;server" style="sketch=0;points=[[0,0,0],[0.25,0,0],[0.5,0,0],[0.75,0,0],[1,0,0],[0,1,0],[0.25,1,0],[0.5,1,0],[0.75,1,0],[1,1,0],[0,0.25,0],[0,0.5,0],[0,0.75,0],[1,0.25,0],[1,0.5,0],[1,0.75,0]];outlineConnect=0;fontColor=#232F3E;gradientColor=#F78E04;gradientDirection=north;fillColor=#D05C17;strokeColor=#ffffff;dashed=0;verticalLabelPosition=bottom;verticalAlign=top;align=center;html=1;fontSize=12;fontStyle=0;aspect=fixed;shape=mxgraph.aws4.resourceIcon;resIcon=mxgraph.aws4.ec2;" vertex="1" parent="1">
          <mxGeometry x="646" y="1000" width="49" height="49" as="geometry" />
        </mxCell>
        <mxCell id="AHqEJTL18uZmj3GmUr9C-26" value="" style="rounded=0;orthogonalLoop=1;jettySize=auto;html=1;" edge="1" parent="1" source="AHqEJTL18uZmj3GmUr9C-15" target="AHqEJTL18uZmj3GmUr9C-18">
          <mxGeometry relative="1" as="geometry" />
        </mxCell>
        <mxCell id="AHqEJTL18uZmj3GmUr9C-15" value="Consul &lt;br&gt;server" style="sketch=0;points=[[0,0,0],[0.25,0,0],[0.5,0,0],[0.75,0,0],[1,0,0],[0,1,0],[0.25,1,0],[0.5,1,0],[0.75,1,0],[1,1,0],[0,0.25,0],[0,0.5,0],[0,0.75,0],[1,0.25,0],[1,0.5,0],[1,0.75,0]];outlineConnect=0;fontColor=#232F3E;gradientColor=#F78E04;gradientDirection=north;fillColor=#D05C17;strokeColor=#ffffff;dashed=0;verticalLabelPosition=bottom;verticalAlign=top;align=center;html=1;fontSize=12;fontStyle=0;aspect=fixed;shape=mxgraph.aws4.resourceIcon;resIcon=mxgraph.aws4.ec2;" vertex="1" parent="1">
          <mxGeometry x="560" y="1000" width="50" height="50" as="geometry" />
        </mxCell>
        <mxCell id="AHqEJTL18uZmj3GmUr9C-19" value="Consul &lt;br&gt;server" style="sketch=0;points=[[0,0,0],[0.25,0,0],[0.5,0,0],[0.75,0,0],[1,0,0],[0,1,0],[0.25,1,0],[0.5,1,0],[0.75,1,0],[1,1,0],[0,0.25,0],[0,0.5,0],[0,0.75,0],[1,0.25,0],[1,0.5,0],[1,0.75,0]];outlineConnect=0;fontColor=#232F3E;gradientColor=#F78E04;gradientDirection=north;fillColor=#D05C17;strokeColor=#ffffff;dashed=0;verticalLabelPosition=bottom;verticalAlign=top;align=center;html=1;fontSize=12;fontStyle=0;aspect=fixed;shape=mxgraph.aws4.resourceIcon;resIcon=mxgraph.aws4.ec2;" vertex="1" parent="1">
          <mxGeometry x="776" y="1000" width="50" height="50" as="geometry" />
        </mxCell>
        <mxCell id="AHqEJTL18uZmj3GmUr9C-25" value="" style="edgeStyle=orthogonalEdgeStyle;rounded=0;orthogonalLoop=1;jettySize=auto;html=1;" edge="1" parent="1" source="AHqEJTL18uZmj3GmUr9C-18" target="AHqEJTL18uZmj3GmUr9C-19">
          <mxGeometry relative="1" as="geometry" />
        </mxCell>
        <mxCell id="AHqEJTL18uZmj3GmUr9C-41" value="" style="edgeStyle=orthogonalEdgeStyle;rounded=0;orthogonalLoop=1;jettySize=auto;html=1;" edge="1" parent="1" source="AHqEJTL18uZmj3GmUr9C-36" target="AHqEJTL18uZmj3GmUr9C-38">
          <mxGeometry relative="1" as="geometry" />
        </mxCell>
        <mxCell id="AHqEJTL18uZmj3GmUr9C-30" value="Consul &lt;br&gt;server" style="sketch=0;points=[[0,0,0],[0.25,0,0],[0.5,0,0],[0.75,0,0],[1,0,0],[0,1,0],[0.25,1,0],[0.5,1,0],[0.75,1,0],[1,1,0],[0,0.25,0],[0,0.5,0],[0,0.75,0],[1,0.25,0],[1,0.5,0],[1,0.75,0]];outlineConnect=0;fontColor=#232F3E;gradientColor=#F78E04;gradientDirection=north;fillColor=#D05C17;strokeColor=#ffffff;dashed=0;verticalLabelPosition=top;verticalAlign=bottom;align=center;html=1;fontSize=12;fontStyle=0;aspect=fixed;shape=mxgraph.aws4.resourceIcon;resIcon=mxgraph.aws4.ec2;labelPosition=center;" vertex="1" parent="1">
          <mxGeometry x="480" y="564" width="50" height="50" as="geometry" />
        </mxCell>
        <mxCell id="AHqEJTL18uZmj3GmUr9C-38" value="Jenkins&lt;br&gt;Node" style="sketch=0;points=[[0,0,0],[0.25,0,0],[0.5,0,0],[0.75,0,0],[1,0,0],[0,1,0],[0.25,1,0],[0.5,1,0],[0.75,1,0],[1,1,0],[0,0.25,0],[0,0.5,0],[0,0.75,0],[1,0.25,0],[1,0.5,0],[1,0.75,0]];outlineConnect=0;fontColor=#232F3E;gradientColor=#F78E04;gradientDirection=north;fillColor=#D05C17;strokeColor=#ffffff;dashed=0;verticalLabelPosition=bottom;verticalAlign=top;align=center;html=1;fontSize=12;fontStyle=0;aspect=fixed;shape=mxgraph.aws4.resourceIcon;resIcon=mxgraph.aws4.ec2;" vertex="1" parent="1">
          <mxGeometry x="480" y="669" width="50" height="50" as="geometry" />
        </mxCell>
        <mxCell id="AHqEJTL18uZmj3GmUr9C-46" value="" style="endArrow=none;html=1;rounded=0;" edge="1" parent="1">
          <mxGeometry width="50" height="50" relative="1" as="geometry">
            <mxPoint x="639" y="630" as="sourcePoint" />
            <mxPoint x="639" y="600" as="targetPoint" />
          </mxGeometry>
        </mxCell>
        <mxCell id="AHqEJTL18uZmj3GmUr9C-49" value="" style="endArrow=none;html=1;rounded=0;" edge="1" parent="1">
          <mxGeometry width="50" height="50" relative="1" as="geometry">
            <mxPoint x="282" y="631" as="sourcePoint" />
            <mxPoint x="282.4100000000001" y="615" as="targetPoint" />
          </mxGeometry>
        </mxCell>
        <mxCell id="AHqEJTL18uZmj3GmUr9C-50" value="" style="endArrow=none;html=1;rounded=0;" edge="1" parent="1">
          <mxGeometry width="50" height="50" relative="1" as="geometry">
            <mxPoint x="506" y="632" as="sourcePoint" />
            <mxPoint x="506.4100000000001" y="616" as="targetPoint" />
          </mxGeometry>
        </mxCell>
        <mxCell id="AHqEJTL18uZmj3GmUr9C-52" value="" style="endArrow=none;html=1;rounded=0;" edge="1" parent="1">
          <mxGeometry width="50" height="50" relative="1" as="geometry">
            <mxPoint x="290" y="673" as="sourcePoint" />
            <mxPoint x="290" y="633" as="targetPoint" />
          </mxGeometry>
        </mxCell>
        <mxCell id="AHqEJTL18uZmj3GmUr9C-53" value="" style="endArrow=none;html=1;rounded=0;" edge="1" parent="1">
          <mxGeometry width="50" height="50" relative="1" as="geometry">
            <mxPoint x="516" y="671" as="sourcePoint" />
            <mxPoint x="516" y="631" as="targetPoint" />
          </mxGeometry>
        </mxCell>
      </root>
    </mxGraphModel>
  </diagram>
  <diagram id="QRZUa_CiP05eVx_1G6YE" name="Page-3">
    <mxGraphModel dx="1422" dy="1862" grid="1" gridSize="10" guides="1" tooltips="1" connect="1" arrows="1" fold="1" page="1" pageScale="1" pageWidth="850" pageHeight="1100" math="0" shadow="0">
      <root>
        <mxCell id="0" />
        <mxCell id="1" parent="0" />
        <mxCell id="DCH5rkISJ1ASIKsSZgnR-1" value="&lt;b&gt;Private subnet A&lt;/b&gt;" style="points=[[0,0],[0.25,0],[0.5,0],[0.75,0],[1,0],[1,0.25],[1,0.5],[1,0.75],[1,1],[0.75,1],[0.5,1],[0.25,1],[0,1],[0,0.75],[0,0.5],[0,0.25]];outlineConnect=0;gradientColor=none;html=1;whiteSpace=wrap;fontSize=12;fontStyle=0;container=1;pointerEvents=0;collapsible=0;recursiveResize=0;shape=mxgraph.aws4.group;grIcon=mxgraph.aws4.group_security_group;grStroke=0;strokeColor=#147EBA;fillColor=#E6F2F8;verticalAlign=top;align=left;spacingLeft=30;fontColor=#147EBA;dashed=0;" vertex="1" parent="1">
          <mxGeometry x="57" y="220" width="360" height="260" as="geometry" />
        </mxCell>
        <mxCell id="DCH5rkISJ1ASIKsSZgnR-2" value="Consul &lt;br&gt;server" style="sketch=0;points=[[0,0,0],[0.25,0,0],[0.5,0,0],[0.75,0,0],[1,0,0],[0,1,0],[0.25,1,0],[0.5,1,0],[0.75,1,0],[1,1,0],[0,0.25,0],[0,0.5,0],[0,0.75,0],[1,0.25,0],[1,0.5,0],[1,0.75,0]];outlineConnect=0;fontColor=#232F3E;gradientColor=#F78E04;gradientDirection=north;fillColor=#D05C17;strokeColor=#ffffff;dashed=0;verticalLabelPosition=top;verticalAlign=bottom;align=center;html=1;fontSize=12;fontStyle=0;aspect=fixed;shape=mxgraph.aws4.resourceIcon;resIcon=mxgraph.aws4.ec2;labelPosition=center;" vertex="1" parent="DCH5rkISJ1ASIKsSZgnR-1">
          <mxGeometry x="100" y="64" width="50" height="50" as="geometry" />
        </mxCell>
        <mxCell id="DCH5rkISJ1ASIKsSZgnR-3" value="Consul &lt;br&gt;server" style="sketch=0;points=[[0,0,0],[0.25,0,0],[0.5,0,0],[0.75,0,0],[1,0,0],[0,1,0],[0.25,1,0],[0.5,1,0],[0.75,1,0],[1,1,0],[0,0.25,0],[0,0.5,0],[0,0.75,0],[1,0.25,0],[1,0.5,0],[1,0.75,0]];outlineConnect=0;fontColor=#232F3E;gradientColor=#F78E04;gradientDirection=north;fillColor=#D05C17;strokeColor=#ffffff;dashed=0;verticalLabelPosition=top;verticalAlign=bottom;align=center;html=1;fontSize=12;fontStyle=0;aspect=fixed;shape=mxgraph.aws4.resourceIcon;resIcon=mxgraph.aws4.ec2;labelPosition=center;" vertex="1" parent="DCH5rkISJ1ASIKsSZgnR-1">
          <mxGeometry x="220" y="64" width="50" height="50" as="geometry" />
        </mxCell>
        <mxCell id="DCH5rkISJ1ASIKsSZgnR-7" value="Jenkins&lt;br&gt;Master" style="sketch=0;points=[[0,0,0],[0.25,0,0],[0.5,0,0],[0.75,0,0],[1,0,0],[0,1,0],[0.25,1,0],[0.5,1,0],[0.75,1,0],[1,1,0],[0,0.25,0],[0,0.5,0],[0,0.75,0],[1,0.25,0],[1,0.5,0],[1,0.75,0]];outlineConnect=0;fontColor=#232F3E;gradientColor=#F78E04;gradientDirection=north;fillColor=#D05C17;strokeColor=#ffffff;dashed=0;verticalLabelPosition=bottom;verticalAlign=top;align=center;html=1;fontSize=12;fontStyle=0;aspect=fixed;shape=mxgraph.aws4.resourceIcon;resIcon=mxgraph.aws4.ec2;" vertex="1" parent="DCH5rkISJ1ASIKsSZgnR-1">
          <mxGeometry x="220" y="170" width="50" height="50" as="geometry" />
        </mxCell>
        <mxCell id="DCH5rkISJ1ASIKsSZgnR-8" value="Jenkins&lt;br&gt;Node" style="sketch=0;points=[[0,0,0],[0.25,0,0],[0.5,0,0],[0.75,0,0],[1,0,0],[0,1,0],[0.25,1,0],[0.5,1,0],[0.75,1,0],[1,1,0],[0,0.25,0],[0,0.5,0],[0,0.75,0],[1,0.25,0],[1,0.5,0],[1,0.75,0]];outlineConnect=0;fontColor=#232F3E;gradientColor=#F78E04;gradientDirection=north;fillColor=#D05C17;strokeColor=#ffffff;dashed=0;verticalLabelPosition=bottom;verticalAlign=top;align=center;html=1;fontSize=12;fontStyle=0;aspect=fixed;shape=mxgraph.aws4.resourceIcon;resIcon=mxgraph.aws4.ec2;" vertex="1" parent="DCH5rkISJ1ASIKsSZgnR-1">
          <mxGeometry x="100" y="170" width="50" height="50" as="geometry" />
        </mxCell>
        <mxCell id="DCH5rkISJ1ASIKsSZgnR-17" value="Group A&amp;nbsp; - &lt;br&gt;EKS Worker" style="points=[[0,0],[0.25,0],[0.5,0],[0.75,0],[1,0],[1,0.25],[1,0.5],[1,0.75],[1,1],[0.75,1],[0.5,1],[0.25,1],[0,1],[0,0.75],[0,0.5],[0,0.25]];outlineConnect=0;html=1;whiteSpace=wrap;fontSize=12;fontStyle=0;container=1;pointerEvents=0;collapsible=0;recursiveResize=0;shape=mxgraph.aws4.groupCenter;grIcon=mxgraph.aws4.group_auto_scaling_group;grStroke=1;strokeColor=#9673a6;fillColor=#e1d5e7;verticalAlign=top;align=center;dashed=1;spacingTop=25;" vertex="1" parent="DCH5rkISJ1ASIKsSZgnR-1">
          <mxGeometry x="10" y="70" width="80" height="120" as="geometry" />
        </mxCell>
        <mxCell id="DCH5rkISJ1ASIKsSZgnR-12" value="&lt;b&gt;Private subnet B&lt;/b&gt;" style="points=[[0,0],[0.25,0],[0.5,0],[0.75,0],[1,0],[1,0.25],[1,0.5],[1,0.75],[1,1],[0.75,1],[0.5,1],[0.25,1],[0,1],[0,0.75],[0,0.5],[0,0.25]];outlineConnect=0;gradientColor=none;html=1;whiteSpace=wrap;fontSize=12;fontStyle=0;container=1;pointerEvents=0;collapsible=0;recursiveResize=0;shape=mxgraph.aws4.group;grIcon=mxgraph.aws4.group_security_group;grStroke=0;strokeColor=#147EBA;fillColor=#E6F2F8;verticalAlign=top;align=left;spacingLeft=30;fontColor=#147EBA;dashed=0;" vertex="1" parent="1">
          <mxGeometry x="437" y="220" width="360" height="260" as="geometry" />
        </mxCell>
        <mxCell id="DCH5rkISJ1ASIKsSZgnR-13" value="Consul &lt;br&gt;server" style="sketch=0;points=[[0,0,0],[0.25,0,0],[0.5,0,0],[0.75,0,0],[1,0,0],[0,1,0],[0.25,1,0],[0.5,1,0],[0.75,1,0],[1,1,0],[0,0.25,0],[0,0.5,0],[0,0.75,0],[1,0.25,0],[1,0.5,0],[1,0.75,0]];outlineConnect=0;fontColor=#232F3E;gradientColor=#F78E04;gradientDirection=north;fillColor=#D05C17;strokeColor=#ffffff;dashed=0;verticalLabelPosition=top;verticalAlign=bottom;align=center;html=1;fontSize=12;fontStyle=0;aspect=fixed;shape=mxgraph.aws4.resourceIcon;resIcon=mxgraph.aws4.ec2;labelPosition=center;" vertex="1" parent="DCH5rkISJ1ASIKsSZgnR-12">
          <mxGeometry x="100" y="64" width="50" height="50" as="geometry" />
        </mxCell>
        <mxCell id="DCH5rkISJ1ASIKsSZgnR-16" value="Jenkins&lt;br&gt;Node" style="sketch=0;points=[[0,0,0],[0.25,0,0],[0.5,0,0],[0.75,0,0],[1,0,0],[0,1,0],[0.25,1,0],[0.5,1,0],[0.75,1,0],[1,1,0],[0,0.25,0],[0,0.5,0],[0,0.75,0],[1,0.25,0],[1,0.5,0],[1,0.75,0]];outlineConnect=0;fontColor=#232F3E;gradientColor=#F78E04;gradientDirection=north;fillColor=#D05C17;strokeColor=#ffffff;dashed=0;verticalLabelPosition=bottom;verticalAlign=top;align=center;html=1;fontSize=12;fontStyle=0;aspect=fixed;shape=mxgraph.aws4.resourceIcon;resIcon=mxgraph.aws4.ec2;" vertex="1" parent="DCH5rkISJ1ASIKsSZgnR-12">
          <mxGeometry x="100" y="170" width="50" height="50" as="geometry" />
        </mxCell>
        <mxCell id="DCH5rkISJ1ASIKsSZgnR-18" value="Group B&amp;nbsp; - &lt;br&gt;EKS Worker" style="points=[[0,0],[0.25,0],[0.5,0],[0.75,0],[1,0],[1,0.25],[1,0.5],[1,0.75],[1,1],[0.75,1],[0.5,1],[0.25,1],[0,1],[0,0.75],[0,0.5],[0,0.25]];outlineConnect=0;html=1;whiteSpace=wrap;fontSize=12;fontStyle=0;container=1;pointerEvents=0;collapsible=0;recursiveResize=0;shape=mxgraph.aws4.groupCenter;grIcon=mxgraph.aws4.group_auto_scaling_group;grStroke=1;strokeColor=#9673a6;fillColor=#e1d5e7;verticalAlign=top;align=center;dashed=1;spacingTop=25;" vertex="1" parent="DCH5rkISJ1ASIKsSZgnR-12">
          <mxGeometry x="272" y="64" width="80" height="120" as="geometry" />
        </mxCell>
        <mxCell id="sqbXy_NRs6Z23CjkSW4_-1" value="&lt;b&gt;Public subnet A&lt;/b&gt;" style="points=[[0,0],[0.25,0],[0.5,0],[0.75,0],[1,0],[1,0.25],[1,0.5],[1,0.75],[1,1],[0.75,1],[0.5,1],[0.25,1],[0,1],[0,0.75],[0,0.5],[0,0.25]];outlineConnect=0;gradientColor=none;html=1;whiteSpace=wrap;fontSize=12;fontStyle=0;container=1;pointerEvents=0;collapsible=0;recursiveResize=0;shape=mxgraph.aws4.group;grIcon=mxgraph.aws4.group_security_group;grStroke=0;strokeColor=#248814;fillColor=#E9F3E6;verticalAlign=top;align=left;spacingLeft=30;fontColor=#248814;dashed=0;" vertex="1" parent="1">
          <mxGeometry x="57" y="100" width="360" height="97" as="geometry" />
        </mxCell>
        <mxCell id="sqbXy_NRs6Z23CjkSW4_-2" value="&lt;b&gt;Public subnet B&lt;/b&gt;" style="points=[[0,0],[0.25,0],[0.5,0],[0.75,0],[1,0],[1,0.25],[1,0.5],[1,0.75],[1,1],[0.75,1],[0.5,1],[0.25,1],[0,1],[0,0.75],[0,0.5],[0,0.25]];outlineConnect=0;gradientColor=none;html=1;whiteSpace=wrap;fontSize=12;fontStyle=0;container=1;pointerEvents=0;collapsible=0;recursiveResize=0;shape=mxgraph.aws4.group;grIcon=mxgraph.aws4.group_security_group;grStroke=0;strokeColor=#248814;fillColor=#E9F3E6;verticalAlign=top;align=right;spacingLeft=30;fontColor=#248814;dashed=0;" vertex="1" parent="1">
          <mxGeometry x="437" y="100" width="360" height="97" as="geometry" />
        </mxCell>
        <mxCell id="sqbXy_NRs6Z23CjkSW4_-3" value="Bastion&lt;br&gt;server" style="sketch=0;points=[[0,0,0],[0.25,0,0],[0.5,0,0],[0.75,0,0],[1,0,0],[0,1,0],[0.25,1,0],[0.5,1,0],[0.75,1,0],[1,1,0],[0,0.25,0],[0,0.5,0],[0,0.75,0],[1,0.25,0],[1,0.5,0],[1,0.75,0]];outlineConnect=0;fontColor=#232F3E;gradientColor=#F78E04;gradientDirection=north;fillColor=#D05C17;strokeColor=#ffffff;dashed=0;verticalLabelPosition=middle;verticalAlign=middle;align=right;html=1;fontSize=12;fontStyle=0;aspect=fixed;shape=mxgraph.aws4.resourceIcon;resIcon=mxgraph.aws4.ec2;labelPosition=left;" vertex="1" parent="1">
          <mxGeometry x="357" y="180" width="50" height="50" as="geometry" />
        </mxCell>
        <mxCell id="sqbXy_NRs6Z23CjkSW4_-16" style="edgeStyle=orthogonalEdgeStyle;rounded=0;orthogonalLoop=1;jettySize=auto;html=1;entryX=1;entryY=0.5;entryDx=0;entryDy=0;entryPerimeter=0;fontSize=13;strokeColor=#67AB9F;" edge="1" parent="1" source="sqbXy_NRs6Z23CjkSW4_-6" target="DCH5rkISJ1ASIKsSZgnR-16">
          <mxGeometry relative="1" as="geometry" />
        </mxCell>
        <mxCell id="sqbXy_NRs6Z23CjkSW4_-17" style="edgeStyle=orthogonalEdgeStyle;rounded=0;orthogonalLoop=1;jettySize=auto;html=1;entryX=1;entryY=0.5;entryDx=0;entryDy=0;entryPerimeter=0;fontSize=13;strokeColor=#67AB9F;" edge="1" parent="1" source="sqbXy_NRs6Z23CjkSW4_-6" target="DCH5rkISJ1ASIKsSZgnR-13">
          <mxGeometry relative="1" as="geometry" />
        </mxCell>
        <mxCell id="sqbXy_NRs6Z23CjkSW4_-21" style="edgeStyle=orthogonalEdgeStyle;rounded=0;orthogonalLoop=1;jettySize=auto;html=1;fontSize=13;fontColor=#000000;strokeColor=#67AB9F;" edge="1" parent="1" source="sqbXy_NRs6Z23CjkSW4_-6" target="DCH5rkISJ1ASIKsSZgnR-18">
          <mxGeometry relative="1" as="geometry" />
        </mxCell>
        <mxCell id="sqbXy_NRs6Z23CjkSW4_-6" value="NAT GW" style="sketch=0;outlineConnect=0;fontColor=#232F3E;gradientColor=none;fillColor=#4D27AA;strokeColor=none;dashed=0;verticalLabelPosition=top;verticalAlign=bottom;align=center;html=1;fontSize=13;fontStyle=1;aspect=fixed;pointerEvents=1;shape=mxgraph.aws4.nat_gateway;labelPosition=center;" vertex="1" parent="1">
          <mxGeometry x="730" y="80" width="38" height="38" as="geometry" />
        </mxCell>
        <mxCell id="sqbXy_NRs6Z23CjkSW4_-8" style="edgeStyle=orthogonalEdgeStyle;rounded=0;orthogonalLoop=1;jettySize=auto;html=1;entryX=1;entryY=0.5;entryDx=0;entryDy=0;entryPerimeter=0;strokeColor=#FF0000;" edge="1" parent="1" source="sqbXy_NRs6Z23CjkSW4_-7" target="DCH5rkISJ1ASIKsSZgnR-3">
          <mxGeometry relative="1" as="geometry" />
        </mxCell>
        <mxCell id="sqbXy_NRs6Z23CjkSW4_-9" style="edgeStyle=orthogonalEdgeStyle;rounded=0;orthogonalLoop=1;jettySize=auto;html=1;entryX=1;entryY=0.5;entryDx=0;entryDy=0;entryPerimeter=0;fontColor=#FF3333;strokeColor=#FF0000;" edge="1" parent="1" source="sqbXy_NRs6Z23CjkSW4_-7" target="DCH5rkISJ1ASIKsSZgnR-7">
          <mxGeometry relative="1" as="geometry" />
        </mxCell>
        <mxCell id="sqbXy_NRs6Z23CjkSW4_-10" style="edgeStyle=orthogonalEdgeStyle;rounded=0;orthogonalLoop=1;jettySize=auto;html=1;entryX=0;entryY=0.5;entryDx=0;entryDy=0;entryPerimeter=0;strokeColor=#FF0000;" edge="1" parent="1" source="sqbXy_NRs6Z23CjkSW4_-7" target="DCH5rkISJ1ASIKsSZgnR-13">
          <mxGeometry relative="1" as="geometry" />
        </mxCell>
        <mxCell id="sqbXy_NRs6Z23CjkSW4_-11" style="edgeStyle=orthogonalEdgeStyle;rounded=0;orthogonalLoop=1;jettySize=auto;html=1;strokeColor=#67AB9F;" edge="1" parent="1" source="sqbXy_NRs6Z23CjkSW4_-7" target="DCH5rkISJ1ASIKsSZgnR-2">
          <mxGeometry relative="1" as="geometry" />
        </mxCell>
        <mxCell id="sqbXy_NRs6Z23CjkSW4_-7" value="ALB" style="sketch=0;outlineConnect=0;fontColor=#232F3E;gradientColor=none;fillColor=#4D27AA;strokeColor=none;dashed=0;verticalLabelPosition=top;verticalAlign=bottom;align=center;html=1;fontSize=13;fontStyle=1;aspect=fixed;pointerEvents=1;shape=mxgraph.aws4.application_load_balancer;labelPosition=center;" vertex="1" parent="1">
          <mxGeometry x="396" y="70" width="58" height="58" as="geometry" />
        </mxCell>
        <mxCell id="sqbXy_NRs6Z23CjkSW4_-12" style="edgeStyle=orthogonalEdgeStyle;rounded=0;orthogonalLoop=1;jettySize=auto;html=1;entryX=0;entryY=0.5;entryDx=0;entryDy=0;entryPerimeter=0;fontSize=13;strokeColor=#67AB9F;" edge="1" parent="1" source="sqbXy_NRs6Z23CjkSW4_-5" target="DCH5rkISJ1ASIKsSZgnR-2">
          <mxGeometry relative="1" as="geometry" />
        </mxCell>
        <mxCell id="sqbXy_NRs6Z23CjkSW4_-13" style="edgeStyle=orthogonalEdgeStyle;rounded=0;orthogonalLoop=1;jettySize=auto;html=1;entryX=0;entryY=0.75;entryDx=0;entryDy=0;entryPerimeter=0;fontSize=13;strokeColor=#67AB9F;" edge="1" parent="1" source="sqbXy_NRs6Z23CjkSW4_-5" target="DCH5rkISJ1ASIKsSZgnR-3">
          <mxGeometry relative="1" as="geometry" />
        </mxCell>
        <mxCell id="sqbXy_NRs6Z23CjkSW4_-14" style="edgeStyle=orthogonalEdgeStyle;rounded=0;orthogonalLoop=1;jettySize=auto;html=1;entryX=0;entryY=0.75;entryDx=0;entryDy=0;entryPerimeter=0;fontSize=13;strokeColor=#67AB9F;" edge="1" parent="1" source="sqbXy_NRs6Z23CjkSW4_-5" target="DCH5rkISJ1ASIKsSZgnR-8">
          <mxGeometry relative="1" as="geometry">
            <Array as="points">
              <mxPoint x="137" y="428" />
            </Array>
          </mxGeometry>
        </mxCell>
        <mxCell id="sqbXy_NRs6Z23CjkSW4_-15" style="edgeStyle=orthogonalEdgeStyle;rounded=0;orthogonalLoop=1;jettySize=auto;html=1;fontSize=13;" edge="1" parent="1" source="sqbXy_NRs6Z23CjkSW4_-5" target="DCH5rkISJ1ASIKsSZgnR-7">
          <mxGeometry relative="1" as="geometry" />
        </mxCell>
        <mxCell id="sqbXy_NRs6Z23CjkSW4_-20" style="edgeStyle=orthogonalEdgeStyle;rounded=0;orthogonalLoop=1;jettySize=auto;html=1;fontSize=13;fontColor=#000000;strokeColor=#67AB9F;" edge="1" parent="1" source="sqbXy_NRs6Z23CjkSW4_-5" target="DCH5rkISJ1ASIKsSZgnR-17">
          <mxGeometry relative="1" as="geometry" />
        </mxCell>
        <mxCell id="sqbXy_NRs6Z23CjkSW4_-5" value="NAT GW" style="sketch=0;outlineConnect=0;fontColor=#232F3E;gradientColor=none;fillColor=#4D27AA;strokeColor=none;dashed=0;verticalLabelPosition=top;verticalAlign=bottom;align=center;html=1;fontSize=13;fontStyle=1;aspect=fixed;pointerEvents=1;shape=mxgraph.aws4.nat_gateway;labelPosition=center;" vertex="1" parent="1">
          <mxGeometry x="109" y="80" width="38" height="38" as="geometry" />
        </mxCell>
        <mxCell id="sqbXy_NRs6Z23CjkSW4_-18" value="" style="endArrow=classic;html=1;rounded=0;fontSize=13;fontColor=#FF3333;strokeColor=#FF0000;" edge="1" parent="1">
          <mxGeometry width="50" height="50" relative="1" as="geometry">
            <mxPoint x="18.5" y="690" as="sourcePoint" />
            <mxPoint x="168.5" y="690" as="targetPoint" />
          </mxGeometry>
        </mxCell>
        <mxCell id="sqbXy_NRs6Z23CjkSW4_-19" value="Application Load &lt;br&gt;balancer" style="edgeLabel;html=1;align=center;verticalAlign=middle;resizable=0;points=[];fontSize=13;fontColor=#000000;" vertex="1" connectable="0" parent="sqbXy_NRs6Z23CjkSW4_-18">
          <mxGeometry x="-0.2893" y="-4" relative="1" as="geometry">
            <mxPoint x="17" y="-4" as="offset" />
          </mxGeometry>
        </mxCell>
        <mxCell id="sqbXy_NRs6Z23CjkSW4_-22" value="" style="endArrow=classic;html=1;rounded=0;fontSize=13;fontColor=#FF3333;strokeColor=#67AB9F;" edge="1" parent="1">
          <mxGeometry width="50" height="50" relative="1" as="geometry">
            <mxPoint x="195.5" y="690" as="sourcePoint" />
            <mxPoint x="345.5" y="690" as="targetPoint" />
          </mxGeometry>
        </mxCell>
        <mxCell id="sqbXy_NRs6Z23CjkSW4_-23" value="Server connection&lt;br&gt;&amp;nbsp;to the internet" style="edgeLabel;html=1;align=center;verticalAlign=middle;resizable=0;points=[];fontSize=13;fontColor=#000000;" vertex="1" connectable="0" parent="sqbXy_NRs6Z23CjkSW4_-22">
          <mxGeometry x="-0.2893" y="-4" relative="1" as="geometry">
            <mxPoint x="17" y="-4" as="offset" />
          </mxGeometry>
        </mxCell>
        <mxCell id="sqbXy_NRs6Z23CjkSW4_-25" value="Availability Zone -  A" style="fillColor=none;strokeColor=#147EBA;dashed=1;verticalAlign=top;fontStyle=0;fontColor=#147EBA;fontSize=13;" vertex="1" parent="1">
          <mxGeometry x="40" y="40" width="380" height="460" as="geometry" />
        </mxCell>
        <mxCell id="sqbXy_NRs6Z23CjkSW4_-26" value="Availability Zone - B" style="fillColor=none;strokeColor=#147EBA;dashed=1;verticalAlign=top;fontStyle=0;fontColor=#147EBA;fontSize=13;" vertex="1" parent="1">
          <mxGeometry x="427" y="40" width="380" height="460" as="geometry" />
        </mxCell>
        <mxCell id="sqbXy_NRs6Z23CjkSW4_-27" value="Region" style="points=[[0,0],[0.25,0],[0.5,0],[0.75,0],[1,0],[1,0.25],[1,0.5],[1,0.75],[1,1],[0.75,1],[0.5,1],[0.25,1],[0,1],[0,0.75],[0,0.5],[0,0.25]];outlineConnect=0;gradientColor=none;html=1;whiteSpace=wrap;fontSize=12;fontStyle=0;container=1;pointerEvents=0;collapsible=0;recursiveResize=0;shape=mxgraph.aws4.group;grIcon=mxgraph.aws4.group_region;strokeColor=#147EBA;fillColor=none;verticalAlign=top;align=left;spacingLeft=30;fontColor=#147EBA;dashed=1;" vertex="1" parent="1">
          <mxGeometry x="17" y="10" width="803" height="510" as="geometry" />
        </mxCell>
        <mxCell id="sqbXy_NRs6Z23CjkSW4_-28" value="VPC" style="points=[[0,0],[0.25,0],[0.5,0],[0.75,0],[1,0],[1,0.25],[1,0.5],[1,0.75],[1,1],[0.75,1],[0.5,1],[0.25,1],[0,1],[0,0.75],[0,0.5],[0,0.25]];outlineConnect=0;gradientColor=none;html=1;whiteSpace=wrap;fontSize=12;fontStyle=0;container=1;pointerEvents=0;collapsible=0;recursiveResize=0;shape=mxgraph.aws4.group;grIcon=mxgraph.aws4.group_vpc;strokeColor=#248814;fillColor=none;verticalAlign=top;align=left;spacingLeft=30;fontColor=#AAB7B8;dashed=0;" vertex="1" parent="1">
          <mxGeometry y="-20" width="830" height="560" as="geometry" />
        </mxCell>
        <mxCell id="sqbXy_NRs6Z23CjkSW4_-29" value="Internet GW" style="sketch=0;outlineConnect=0;fontColor=#232F3E;gradientColor=none;fillColor=#4D27AA;strokeColor=none;dashed=0;verticalLabelPosition=top;verticalAlign=bottom;align=center;html=1;fontSize=12;fontStyle=1;aspect=fixed;pointerEvents=1;shape=mxgraph.aws4.internet_gateway;labelPosition=center;" vertex="1" parent="sqbXy_NRs6Z23CjkSW4_-28">
          <mxGeometry x="390" y="-30" width="50" height="50" as="geometry" />
        </mxCell>
        <mxCell id="sqbXy_NRs6Z23CjkSW4_-30" style="edgeStyle=orthogonalEdgeStyle;rounded=0;orthogonalLoop=1;jettySize=auto;html=1;fontSize=13;fontColor=#000000;strokeColor=#0000FF;strokeWidth=2;" edge="1" parent="1" source="sqbXy_NRs6Z23CjkSW4_-29">
          <mxGeometry relative="1" as="geometry">
            <mxPoint x="390" y="180" as="targetPoint" />
          </mxGeometry>
        </mxCell>
        <mxCell id="sqbXy_NRs6Z23CjkSW4_-31" value="" style="endArrow=classic;html=1;rounded=0;fontSize=13;fontColor=#FF3333;strokeColor=#0000CC;" edge="1" parent="1">
          <mxGeometry width="50" height="50" relative="1" as="geometry">
            <mxPoint x="357" y="690" as="sourcePoint" />
            <mxPoint x="507" y="690" as="targetPoint" />
          </mxGeometry>
        </mxCell>
        <mxCell id="sqbXy_NRs6Z23CjkSW4_-32" value="Server connection&lt;br&gt;&amp;nbsp;from the internet" style="edgeLabel;html=1;align=center;verticalAlign=middle;resizable=0;points=[];fontSize=13;fontColor=#000000;" vertex="1" connectable="0" parent="sqbXy_NRs6Z23CjkSW4_-31">
          <mxGeometry x="-0.2893" y="-4" relative="1" as="geometry">
            <mxPoint x="17" y="-4" as="offset" />
          </mxGeometry>
        </mxCell>
        <mxCell id="sqbXy_NRs6Z23CjkSW4_-33" value="" style="verticalLabelPosition=bottom;shadow=0;dashed=0;align=center;html=1;verticalAlign=top;strokeWidth=1;shape=mxgraph.mockup.containers.userMale;strokeColor=#666666;strokeColor2=#008cff;fontSize=13;fontColor=#000000;fillColor=none;" vertex="1" parent="1">
          <mxGeometry x="385" y="-190" width="60" height="50" as="geometry" />
        </mxCell>
        <mxCell id="sqbXy_NRs6Z23CjkSW4_-35" value="" style="endArrow=classic;html=1;rounded=0;fontSize=13;fontColor=#000000;strokeColor=#0000CC;strokeWidth=2;" edge="1" parent="1">
          <mxGeometry width="50" height="50" relative="1" as="geometry">
            <mxPoint x="414.5" y="-140" as="sourcePoint" />
            <mxPoint x="415" y="-70" as="targetPoint" />
          </mxGeometry>
        </mxCell>
      </root>
    </mxGraphModel>
  </diagram>
</mxfile>
